<?xml version="1.0" standalone="no"?>
<!DOCTYPE svg PUBLIC "-//W3C//DTD SVG 20010904//EN"
 "http://www.w3.org/TR/2001/REC-SVG-20010904/DTD/svg10.dtd">
<svg version="1.0" xmlns="http://www.w3.org/2000/svg"
 width="1024.000000pt" height="1024.000000pt" viewBox="0 0 1024.000000 1024.000000"
 preserveAspectRatio="xMidYMid meet">

<g transform="translate(0.000000,1024.000000) scale(0.100000,-0.100000)"
fill="#003932" stroke="none">
<path d="M6742 7904 c-126 -34 -194 -99 -276 -269 -52 -105 -69 -130 -140
-201 -69 -69 -97 -89 -186 -132 -220 -107 -438 -110 -640 -8 -36 18 -164 95
-285 171 -121 76 -249 152 -285 169 -61 29 -72 31 -180 31 -109 0 -119 -2
-183 -32 -106 -50 -159 -113 -392 -461 -116 -172 -244 -362 -285 -422 -41 -60
-127 -186 -190 -280 -147 -219 -444 -651 -492 -717 -30 -40 -47 -53 -81 -61
-69 -18 -161 -84 -202 -145 -47 -71 -65 -133 -65 -223 0 -69 -1 -72 -26 -78
-36 -9 -448 -216 -616 -309 -531 -294 -688 -468 -728 -804 -40 -329 111 -621
385 -749 144 -67 289 -93 555 -101 108 -3 221 -3 252 1 l57 7 81 114 c45 62
88 116 96 119 48 19 -18 23 -294 18 -261 -4 -324 -2 -411 12 -180 31 -262 68
-349 160 -58 61 -97 136 -108 205 -7 41 -6 44 12 37 150 -62 230 -76 459 -83
224 -6 389 4 654 43 302 43 681 135 887 214 l82 31 21 58 c11 31 66 122 120
202 212 306 407 598 631 944 205 317 402 619 620 951 l67 102 -40 6 c-53 9
-113 67 -122 120 -10 49 9 112 44 147 32 31 98 54 133 46 67 -17 128 -91 130
-157 1 -17 4 -29 7 -28 161 85 292 110 452 89 147 -19 238 -56 417 -168 57
-36 131 -76 165 -90 172 -70 383 -22 536 123 51 48 81 88 125 169 66 119 114
187 166 232 43 38 141 93 163 93 9 0 17 3 17 6 0 3 -22 56 -49 118 -27 61 -88
203 -136 316 -97 229 -118 268 -176 334 -107 121 -253 169 -397 130z m174
-281 c12 -7 29 -30 38 -51 15 -33 16 -49 7 -122 -6 -47 -11 -109 -12 -140 -1
-174 -133 -397 -302 -512 -214 -146 -455 -176 -744 -93 l-52 15 -60 114 c-34
62 -61 116 -61 119 0 3 15 0 33 -8 17 -7 77 -26 132 -41 88 -25 117 -28 240
-28 124 0 149 3 220 27 98 33 187 90 255 164 100 109 135 218 125 383 -5 95
-4 108 15 138 36 58 108 73 166 35z m-2108 -227 c34 -12 197 -117 499 -322 40
-27 72 -53 73 -58 0 -4 -30 -5 -67 -1 -127 12 -269 -34 -344 -111 -19 -19 -79
-108 -135 -197 l-102 -162 -197 -8 c-108 -5 -202 -6 -209 -4 -7 3 -34 57 -60
120 l-47 114 185 279 c227 341 213 325 283 350 49 17 72 17 121 0z m-709 -838
c5 -13 30 -74 56 -136 l48 -114 286 4 c281 3 287 3 328 -20 55 -29 92 -85 99
-149 18 -151 -157 -239 -255 -128 -17 20 -31 45 -31 57 0 21 -2 21 -127 15
-71 -4 -151 -7 -178 -7 l-51 0 -54 -90 c-47 -77 -59 -90 -81 -90 -25 0 -30 8
-69 118 -24 64 -58 156 -76 205 -64 167 -64 152 13 261 38 53 71 96 76 96 4 0
11 -10 16 -22z m-319 -462 c0 -7 24 -78 53 -157 l54 -144 194 4 c129 2 210 -1
239 -9 85 -23 151 -121 136 -202 -23 -120 -156 -181 -239 -108 -19 16 -40 44
-47 61 l-13 31 -140 -4 c-87 -1 -145 -7 -152 -14 -6 -6 -30 -41 -54 -78 -24
-37 -48 -65 -53 -64 -5 2 -42 101 -83 221 -41 120 -77 222 -80 227 -8 13 165
261 176 254 5 -3 9 -11 9 -18z m-320 -568 c18 -51 40 -100 49 -109 15 -15 192
-94 346 -154 110 -43 155 -97 155 -185 0 -47 -17 -85 -55 -120 -23 -22 -36
-25 -95 -25 -62 0 -72 3 -99 29 -17 16 -33 44 -37 62 -5 29 -14 36 -92 71 -47
21 -180 81 -296 134 l-211 95 -3 41 c-3 34 2 47 27 76 40 45 80 61 141 55 36
-4 50 -1 54 9 9 23 70 113 77 113 4 0 21 -42 39 -92z m-10 -1230 c0 -9 -226
-62 -419 -98 -271 -50 -412 -63 -676 -64 -250 -1 -343 8 -439 45 -57 21 -126
67 -126 83 0 12 65 114 103 160 l24 29 34 -25 c49 -38 118 -57 237 -69 232
-22 666 46 1026 161 l150 48 43 -132 c23 -72 43 -134 43 -138z"/>
<path d="M7614 6851 c-56 -14 -123 -52 -173 -97 -40 -36 -63 -71 -112 -172
-57 -116 -70 -135 -153 -217 -76 -75 -107 -99 -186 -138 -195 -97 -373 -111
-541 -43 -30 12 -136 70 -235 129 -189 112 -258 142 -352 153 -118 13 -261
-37 -353 -123 -61 -57 -174 -227 -792 -1193 -84 -131 -111 -174 -299 -461
-105 -161 -120 -178 -169 -206 -30 -17 -74 -52 -97 -77 -64 -70 -85 -124 -90
-234 l-4 -92 -67 -37 c-683 -372 -945 -570 -1056 -796 -56 -114 -76 -208 -76
-355 0 -145 13 -206 66 -317 121 -249 308 -366 649 -406 127 -15 514 -6 716
16 578 63 1138 227 1668 489 217 108 264 133 542 296 438 257 1296 796 1684
1057 281 190 411 287 497 373 164 162 230 346 196 540 -26 147 -78 254 -187
380 -26 30 -58 73 -72 95 -25 42 -147 307 -263 575 -303 699 -292 676 -360
745 -77 79 -164 118 -270 121 -44 2 -94 -1 -111 -5z m173 -280 c31 -23 54 -67
55 -104 1 -95 -22 -328 -37 -372 -37 -108 -88 -188 -175 -275 -98 -99 -200
-158 -326 -190 -135 -35 -354 -23 -468 25 -25 11 -41 34 -83 116 -28 57 -51
105 -50 105 1 1 43 -9 92 -23 78 -23 110 -26 245 -27 166 -1 205 7 315 62 63
32 165 129 198 190 53 98 66 182 53 332 -6 74 -5 90 12 119 36 66 111 85 169
42z m-1901 -377 c46 -15 192 -105 421 -257 68 -45 123 -84 123 -87 0 -3 -44
-5 -98 -5 -88 0 -103 -3 -163 -31 -85 -40 -119 -76 -203 -209 -38 -61 -88
-140 -111 -176 l-43 -66 -99 -6 c-54 -4 -141 -7 -194 -7 l-96 0 -52 125 -53
125 166 257 c90 142 180 273 199 291 32 31 98 60 139 61 10 1 38 -6 64 -15z
m572 -624 c53 -32 74 -75 69 -143 -3 -51 -8 -62 -39 -94 -31 -31 -45 -37 -90
-41 -62 -4 -106 19 -146 78 -44 65 -14 167 60 203 45 22 106 21 146 -3z m1808
-32 c3 -13 27 -66 51 -118 l44 -95 -68 -65 c-88 -84 -238 -209 -377 -314 -125
-94 -581 -415 -601 -422 -10 -4 -9 6 1 48 87 336 280 595 607 815 96 65 298
173 324 173 6 0 15 -10 19 -22z m-3021 -263 c26 -66 53 -126 60 -133 10 -11
59 -11 278 -2 147 7 283 9 302 6 48 -9 110 -67 131 -121 59 -157 -117 -296
-232 -184 -19 19 -38 45 -41 58 l-6 24 -159 -6 c-124 -4 -163 -9 -177 -21 -9
-8 -36 -52 -60 -96 -43 -80 -43 -81 -79 -78 l-37 3 -48 125 c-26 69 -65 176
-87 239 l-41 114 68 103 c37 57 71 100 74 96 3 -4 27 -61 54 -127z m3319 -228
c138 -221 84 -363 -229 -598 -245 -185 -653 -451 -1415 -921 -509 -314 -766
-466 -1000 -586 -590 -305 -1268 -490 -1905 -521 -309 -15 -537 9 -663 70
-107 52 -211 188 -228 296 l-6 42 62 -25 c131 -53 180 -59 515 -59 244 0 339
4 445 18 323 44 591 105 872 198 609 202 991 406 2083 1112 723 467 1089 733
1350 980 39 36 71 66 72 67 1 0 22 -33 47 -73z m-3625 -227 c24 -63 53 -137
64 -163 l20 -49 221 8 c248 8 256 6 314 -60 58 -66 64 -158 15 -217 -37 -44
-79 -62 -130 -56 -54 6 -89 29 -110 72 -9 19 -22 36 -28 39 -6 2 -69 2 -138
-1 l-127 -6 -50 -78 c-57 -89 -65 -96 -79 -72 -13 25 -117 300 -151 399 l-27
80 76 117 c42 64 79 113 82 109 3 -4 25 -59 48 -122z m-314 -479 c28 -76 43
-102 59 -107 11 -3 113 -45 225 -93 222 -93 261 -119 281 -188 17 -56 6 -107
-34 -151 -30 -32 -39 -36 -92 -39 -73 -5 -111 16 -145 78 -23 41 -32 46 -229
136 -113 51 -243 112 -290 135 l-85 43 1 43 c1 69 75 132 156 132 30 1 36 7
67 60 19 33 37 57 41 55 4 -3 24 -49 45 -104z m11 -1085 c25 -65 43 -120 42
-121 -8 -8 -275 -68 -372 -85 -236 -40 -389 -53 -606 -54 -172 -1 -232 3 -300
17 -99 21 -189 59 -221 93 l-23 24 48 69 c65 96 68 98 108 68 75 -56 230 -77
443 -58 253 22 487 71 719 149 64 21 113 33 115 27 2 -5 23 -64 47 -129z"/>
</g>
</svg>
